<svg width="62" height="59" viewBox="0 0 62 59" fill="none" xmlns="http://www.w3.org/2000/svg">
<rect x="0.5" y="0.5" width="61" height="58" rx="8.5" fill="#171C2C" stroke="#ED2770"/>
<path d="M31.583 31.6014C31.233 31.2489 30.65 31.2489 30.417 31.6014L25.75 36.8897C25.517 37.2422 25.517 37.7126 25.75 37.9473L30.417 43.2356C30.767 43.5881 31.35 43.5881 31.583 43.2356L36.483 37.9473C36.717 37.5948 36.717 37.1244 36.483 36.8897L31.583 31.6014ZM28.55 15.5C26.683 15.5 25.283 17.1449 25.283 19.0255C25.283 21.4933 27.5 23.0214 30.533 25.6061C30.883 25.8418 31.35 25.8418 31.583 25.6061C34.5 23.0214 36.717 21.4933 36.717 19.0255C36.717 17.0281 35.317 15.5 33.45 15.5C32.517 15.5 31.583 15.9704 31 16.7923C30.3 15.9704 29.483 15.5 28.55 15.5ZM25.167 32.3045C25.5962 32.3052 26.0212 32.2205 26.4179 32.0554C26.8145 31.8902 27.1748 31.6478 27.4782 31.3421C27.7817 31.0364 28.0222 30.6733 28.186 30.2738C28.3499 29.8742 28.4338 29.446 28.433 29.0137C28.433 27.4857 27.383 26.1933 25.983 25.8408C26.1 23.9602 24.583 22.4331 22.717 22.4331C20.85 22.4331 19.333 23.9602 19.45 25.8408C18.05 26.0765 17 27.3688 17 28.8969C16.9992 29.3292 17.0832 29.7574 17.2471 30.157C17.411 30.5566 17.6516 30.9196 17.9552 31.2253C18.2587 31.5309 18.6192 31.7732 19.0159 31.9382C19.4126 32.1032 19.8378 32.1876 20.267 32.1867C20.85 32.1867 21.433 32.0698 21.9 31.7173V33.8326H21.083C20.9751 33.83 20.8679 33.8494 20.7677 33.8898C20.6675 33.9302 20.5765 33.9906 20.5002 34.0675C20.4239 34.1443 20.3639 34.236 20.3238 34.3369C20.2837 34.4378 20.2644 34.5459 20.267 34.6545C20.267 35.1249 20.617 35.4775 21.083 35.4775H24.35C24.817 35.4775 25.167 35.1249 25.167 34.6545C25.1696 34.5458 25.1503 34.4376 25.1101 34.3367C25.07 34.2357 25.0099 34.144 24.9335 34.0671C24.8571 33.9902 24.7659 33.9298 24.6656 33.8895C24.5653 33.8492 24.458 33.8298 24.35 33.8326H23.533V31.7173C24 32.0698 24.583 32.3045 25.167 32.3045ZM39.75 22.3143C39.4 22.0796 38.933 22.0796 38.7 22.3143C35.783 24.9 33.45 26.427 33.45 28.8949C33.45 30.8923 34.85 32.4204 36.717 32.4204C37.3 32.4204 37.883 32.3035 38.35 31.951V33.8306H37.533C37.4251 33.8279 37.3177 33.8474 37.2174 33.8879C37.1172 33.9283 37.0262 33.9889 36.9498 34.0658C36.8735 34.1428 36.8135 34.2346 36.7735 34.3356C36.7335 34.4366 36.7143 34.5448 36.717 34.6535C36.717 35.1229 37.067 35.4755 37.533 35.4755H40.8C41.267 35.4755 41.617 35.1229 41.617 34.6535C41.6198 34.5447 41.6005 34.4364 41.5604 34.3353C41.5203 34.2342 41.4602 34.1424 41.3838 34.0654C41.3074 33.9885 41.2162 33.928 41.1159 33.8876C41.0155 33.8472 40.908 33.8278 40.8 33.8306H39.983V31.95C40.45 32.3025 41.033 32.4204 41.617 32.4204C43.483 32.4204 44.883 30.7755 44.883 28.8949C45 26.427 42.783 24.9 39.75 22.3143Z" fill="#EB266F"/>
</svg>
