<svg width="29" height="28" viewBox="0 0 29 28" fill="none" xmlns="http://www.w3.org/2000/svg">
<path d="M14.3004 17.0942H11.8069C11.3261 17.0942 10.9055 17.4849 10.9055 17.9956V19.5277C10.9055 20.0085 11.2961 20.4291 11.8069 20.4291H14.3004C14.7812 20.4291 15.2018 20.0384 15.2018 19.5277V17.9956C15.2018 17.5148 14.7812 17.0942 14.3004 17.0942Z" fill="white"/>
<path d="M7.87123 17.0942H5.37766C4.89693 17.0942 4.47632 17.4849 4.47632 17.9956V19.5277C4.47632 20.0085 4.86694 20.4291 5.37766 20.4291H7.87123C8.35197 20.4291 8.77258 20.0384 8.77258 19.5277V17.9956C8.77258 17.5148 8.35198 17.0942 7.87123 17.0942Z" fill="white"/>
<path d="M14.3004 11.4766H11.8069C11.3261 11.4766 10.9055 11.8672 10.9055 12.3779V13.91C10.9055 14.3908 11.2961 14.8114 11.8069 14.8114H14.3004C14.7812 14.8114 15.2018 14.4208 15.2018 13.91V12.3779C15.2018 11.8972 14.7812 11.4766 14.3004 11.4766Z" fill="white"/>
<path d="M7.87123 11.4766H5.37766C4.89693 11.4766 4.47632 11.8672 4.47632 12.3779V13.91C4.47632 14.3908 4.86694 14.8114 5.37766 14.8114H7.87123C8.35197 14.8114 8.77258 14.4208 8.77258 13.91V12.3779C8.77258 11.8972 8.35198 11.4766 7.87123 11.4766Z" fill="white"/>
<path d="M20.7296 11.4766H18.2361C17.7553 11.4766 17.3347 11.8672 17.3347 12.3779V13.91C17.3347 14.3908 17.7253 14.8114 18.2361 14.8114H20.7296C21.2104 14.8114 21.631 14.4208 21.631 13.91V12.3779C21.631 11.8972 21.2104 11.4766 20.7296 11.4766Z" fill="white"/>
<path d="M26.1074 17.3648V5.43777C26.1074 4.6567 25.8069 3.96561 25.3263 3.42489V3.39492H25.2964C24.7255 2.76391 23.9143 2.37351 23.0131 2.37351H20.7599L20.7597 1.02141C20.7597 0.450543 20.3091 5.01397e-06 19.7383 5.01397e-06H18.2062C17.6353 5.01397e-06 17.1848 0.450564 17.1848 1.02141V2.3733L8.89288 2.3735V1.02141C8.89288 0.450538 8.44232 0 7.87147 0H6.33933C5.76846 0 5.31792 0.450559 5.31792 1.02141V2.37329H3.0647C2.16335 2.37329 1.35214 2.76391 0.781484 3.3947L0.781064 3.39491V3.42488C0.300328 3.96554 0 4.65669 0 5.43776V21.8112C0 23.4936 1.38209 24.8756 3.06444 24.8756H17.455C18.4465 26.7382 20.3992 28 22.6524 28C25.8971 28 28.5409 25.3562 28.5409 22.1116C28.5409 20.1589 27.5794 18.4163 26.1074 17.3648L26.1074 17.3648ZM16.764 22.1116C16.764 22.352 16.794 22.5924 16.8242 22.8327H3.06446C2.49359 22.8327 2.04305 22.3822 2.04305 21.8113L2.04284 9.31342H24.0343V16.4036C23.5838 16.2835 23.133 16.2233 22.6522 16.2233C19.4078 16.2233 16.7638 18.867 16.7638 22.1118L16.764 22.1116ZM25.0859 21.5108L22.6525 24.1245C22.5022 24.2748 22.292 24.3649 22.0816 24.3649C21.8712 24.3649 21.661 24.2748 21.5108 24.1245L20.0687 22.5622C19.7682 22.2617 19.7984 21.7812 20.0987 21.4807C20.3992 21.1802 20.8798 21.2103 21.1803 21.5106L22.0816 22.4721L23.9442 20.4592C24.2447 20.1587 24.7253 20.1288 25.0258 20.4293C25.3562 20.7298 25.3862 21.2103 25.0859 21.5108H25.0859Z" fill="white"/>
</svg>
