<svg width="72" height="117" viewBox="0 0 72 117" fill="none" xmlns="http://www.w3.org/2000/svg">
<path d="M55.3503 93.5718C55.3503 95.8354 54.487 97.3343 52.5173 98.4516L22.664 115.648C21.6792 116.214 20.7526 116.498 19.8258 116.498C18.8991 116.498 17.9725 116.214 16.9877 115.648L2.83478 107.503C0.866766 106.369 0 104.874 0 102.61V14.034C0 11.7704 0.866847 10.2747 2.83478 9.14132L17.7008 0.585985C18.3217 0.214148 19.0478 0 19.8241 0C22.1009 0 23.9477 1.83858 23.9477 4.1054C23.9477 5.65089 23.0891 6.99689 21.8213 7.69723L8.24576 15.5088V101.131L19.8242 107.794L47.1031 92.0955V78.7618L39.6483 74.4712V85.4286C39.6483 87.6954 37.8015 89.534 35.5247 89.534C33.2478 89.534 31.4043 87.6954 31.4043 85.4286L31.3833 67.36C31.3833 65.9482 32.1159 64.5748 33.4257 63.8117C34.0969 63.4252 34.8116 63.2498 35.5053 63.2498C36.2426 63.2498 36.9558 63.4478 37.5687 63.8005L52.5156 72.3913C54.4836 73.5247 55.3503 75.0203 55.3503 77.284L55.3503 93.5718ZM15.7022 23.0699C15.7022 20.8063 16.5671 19.3076 18.5352 18.174L48.3885 0.994112C49.3733 0.427486 50.3 0.144172 51.2267 0.144172C52.1535 0.144172 53.0801 0.427494 54.0649 0.994112L68.2178 9.13891C70.1874 10.2723 71.0542 11.768 71.0542 14.0316V48.3914C71.0542 50.655 70.1873 52.1507 68.2194 53.2841L53.3534 61.8394C52.7324 62.2113 52.0063 62.4254 51.2301 62.4254C48.9532 62.4254 47.1065 60.5868 47.1065 58.32C47.1065 56.7745 47.9651 55.4285 49.2328 54.7282L62.8084 46.9166V15.5111L51.2299 8.84747L23.9494 24.5462V94.4669C23.9494 96.7337 22.1027 98.5723 19.8258 98.5723C17.549 98.5723 15.7022 96.7337 15.7022 94.4669V23.0731V23.0699ZM33.5292 45.6899L47.1031 37.8751V29.2876L37.6479 34.7293C37.0286 35.1011 36.3024 35.3152 35.5263 35.3152C33.2494 35.3152 31.4027 33.4767 31.4027 31.2098C31.4027 29.6644 32.2742 28.3411 33.529 27.6166L49.147 18.6169C49.797 18.2433 50.5052 18.0663 51.2054 18.0663C52.63 18.0663 54.0159 18.8021 54.7792 20.119C55.1544 20.7661 55.3322 21.4713 55.3322 22.1683L55.3516 39.353C55.3532 41.6166 54.4833 43.1123 52.5136 44.2457L37.6476 52.8011C37.0283 53.1729 36.3021 53.387 35.526 53.387C33.2491 53.387 31.4024 51.5485 31.4024 49.2816C31.4024 47.7361 32.2614 46.3902 33.5292 45.6899ZM66.9288 63.2465C69.2057 63.2465 71.0524 65.0835 71.0524 67.3503V102.602C71.0524 104.866 70.1855 106.361 68.216 107.495L53.35 116.05C52.729 116.422 52.0029 116.636 51.2267 116.636C48.9498 116.636 47.1031 114.797 47.1031 112.531C47.1031 110.985 47.9617 109.639 49.2294 108.939L62.805 101.127V67.3519C62.805 65.0851 64.6519 63.2465 66.9288 63.2465Z" fill="url(#paint0_linear_61_1022)"/>
<defs>
<linearGradient id="paint0_linear_61_1022" x1="-5.85767" y1="19.8281" x2="125.216" y2="68.0234" gradientUnits="userSpaceOnUse">
<stop stop-color="#EB266F"/>
<stop offset="0.3125" stop-color="#EB266F"/>
<stop offset="0.354167" stop-color="#94204B"/>
<stop offset="0.808444" stop-color="#523E45" stop-opacity="0.94"/>
</linearGradient>
</defs>
</svg>
