<svg width="173" height="91" viewBox="0 0 173 91" fill="none" xmlns="http://www.w3.org/2000/svg">
<circle cx="45.5" cy="45.5" r="44" stroke="url(#paint0_linear_4_29)" stroke-width="3"/>
<path d="M53.1206 59.2088C53.1206 60.1192 52.7749 60.722 51.9862 61.1713L40.0332 68.087C39.6389 68.3149 39.2679 68.4288 38.8968 68.4288C38.5258 68.4288 38.1548 68.3149 37.7605 68.087L32.0938 64.8114C31.3058 64.3556 30.9587 63.7541 30.9587 62.8438V27.2213C30.9587 26.311 31.3058 25.7095 32.0938 25.2537L38.046 21.813C38.2946 21.6634 38.5853 21.5773 38.8961 21.5773C39.8078 21.5773 40.5472 22.3167 40.5472 23.2284C40.5472 23.8499 40.2034 24.3912 39.6958 24.6729L34.2603 27.8144V62.2487L38.8962 64.9286L49.8184 58.6151V53.2527L46.8336 51.5272V55.9339C46.8336 56.8456 46.0942 57.585 45.1825 57.585C44.2709 57.585 43.5328 56.8456 43.5328 55.9339L43.5243 48.6673C43.5243 48.0995 43.8177 47.5472 44.3421 47.2403C44.6108 47.0849 44.897 47.0143 45.1748 47.0143C45.47 47.0143 45.7555 47.094 46.0009 47.2358L51.9855 50.6907C52.7735 51.1465 53.1206 51.748 53.1206 52.6584L53.1206 59.2088ZM37.2458 30.8553C37.2458 29.9449 37.5921 29.3422 38.3801 28.8863L50.3331 21.9771C50.7274 21.7492 51.0984 21.6353 51.4695 21.6353C51.8406 21.6353 52.2116 21.7492 52.6059 21.9771L58.2726 25.2527C59.0612 25.7085 59.4082 26.31 59.4082 27.2204V41.0388C59.4082 41.9491 59.0612 42.5506 58.2732 43.0064L52.321 46.4471C52.0724 46.5966 51.7816 46.6828 51.4709 46.6828C50.5592 46.6828 49.8198 45.9434 49.8198 45.0317C49.8198 44.4102 50.1636 43.8689 50.6712 43.5872L56.1067 40.4457V27.8154L51.4708 25.1355L40.5479 31.449V59.5688C40.5479 60.4805 39.8085 61.2199 38.8968 61.2199C37.9852 61.2199 37.2458 60.4805 37.2458 59.5688V30.8566V30.8553ZM44.3835 39.9523L49.8184 36.8095V33.3558L46.0327 35.5443C45.7847 35.6938 45.4939 35.78 45.1832 35.78C44.2715 35.78 43.5321 35.0405 43.5321 34.1289C43.5321 33.5074 43.8811 32.9752 44.3835 32.6838L50.6368 29.0644C50.897 28.9142 51.1806 28.843 51.4609 28.843C52.0313 28.843 52.5863 29.1389 52.8919 29.6685C53.0421 29.9288 53.1133 30.2124 53.1133 30.4927L53.1211 37.4038C53.1217 38.3142 52.7734 38.9157 51.9848 39.3715L46.0325 42.8122C45.7845 42.9617 45.4938 43.0478 45.183 43.0478C44.2714 43.0478 43.532 42.3084 43.532 41.3968C43.532 40.7752 43.8759 40.2339 44.3835 39.9523ZM57.7565 47.013C58.6681 47.013 59.4075 47.7518 59.4075 48.6634V62.8405C59.4075 63.7509 59.0605 64.3524 58.2719 64.8082L52.3196 68.2489C52.071 68.3984 51.7803 68.4845 51.4695 68.4845C50.5579 68.4845 49.8184 67.7451 49.8184 66.8335C49.8184 66.2119 50.1622 65.6706 50.6698 65.389L56.1053 62.2474V48.664C56.1053 47.7524 56.8448 47.013 57.7565 47.013Z" fill="url(#paint1_linear_4_29)"/>
<path d="M113.844 25.34H123.204C125.724 25.34 127.608 25.856 128.856 26.888C130.104 27.896 130.728 29.516 130.728 31.748C130.728 33.212 130.488 34.364 130.008 35.204C129.552 36.044 128.82 36.74 127.812 37.292C130.164 38.204 131.34 40.112 131.34 43.016C131.34 47.672 128.724 50 123.492 50H113.844V25.34ZM123.204 39.236H117.84V46.544H123.276C124.596 46.544 125.58 46.268 126.228 45.716C126.9 45.164 127.236 44.216 127.236 42.872C127.236 41.528 126.852 40.592 126.084 40.064C125.316 39.512 124.356 39.236 123.204 39.236ZM122.988 28.796H117.84V35.852H123.132C125.484 35.852 126.66 34.64 126.66 32.216C126.66 29.936 125.436 28.796 122.988 28.796ZM144.167 50.396C140.567 50.396 138.119 49.4 136.823 47.408C135.551 45.416 134.915 42.14 134.915 37.58C134.915 33.02 135.563 29.78 136.859 27.86C138.155 25.916 140.591 24.944 144.167 24.944C146.303 24.944 148.655 25.244 151.223 25.844L151.079 29.084C148.919 28.7 146.759 28.508 144.599 28.508C142.439 28.508 140.975 29.156 140.207 30.452C139.439 31.724 139.055 34.136 139.055 37.688C139.055 41.216 139.427 43.628 140.171 44.924C140.915 46.196 142.367 46.832 144.527 46.832C146.687 46.832 148.871 46.652 151.079 46.292L151.187 49.604C148.715 50.132 146.375 50.396 144.167 50.396ZM162.705 28.436C159.657 28.436 158.133 29.504 158.133 31.64C158.133 32.744 158.493 33.536 159.213 34.016C159.933 34.472 161.517 35.048 163.965 35.744C166.437 36.416 168.177 37.232 169.185 38.192C170.193 39.128 170.697 40.616 170.697 42.656C170.697 45.248 169.953 47.192 168.465 48.488C167.001 49.76 164.997 50.396 162.453 50.396C160.413 50.396 158.157 50.156 155.685 49.676L154.389 49.424L154.785 46.22C158.025 46.652 160.497 46.868 162.201 46.868C165.177 46.868 166.665 45.548 166.665 42.908C166.665 41.876 166.329 41.12 165.657 40.64C164.985 40.136 163.473 39.596 161.121 39.02C158.769 38.42 157.017 37.604 155.865 36.572C154.713 35.54 154.137 33.908 154.137 31.676C154.137 29.444 154.857 27.764 156.297 26.636C157.761 25.484 159.777 24.908 162.345 24.908C164.193 24.908 166.377 25.124 168.897 25.556L170.157 25.772L169.833 29.012C166.473 28.628 164.097 28.436 162.705 28.436Z" fill="white"/>
<path d="M126.438 64.2307H123.098V69.1707C123.098 70.4641 123.191 71.3107 123.378 71.7107C123.565 72.1107 124.005 72.3107 124.698 72.3107L126.538 72.1707L126.618 73.1907C125.738 73.3241 125.065 73.3907 124.598 73.3907C123.585 73.3907 122.878 73.1441 122.478 72.6507C122.091 72.1441 121.898 71.1841 121.898 69.7707V64.2307H120.418V63.1707H121.898V60.0307H123.098V63.1707H126.438V64.2307ZM127.892 68.1507C127.892 66.2707 128.205 64.9374 128.832 64.1507C129.472 63.3641 130.552 62.9707 132.072 62.9707C133.605 62.9707 134.685 63.3641 135.312 64.1507C135.952 64.9374 136.272 66.2707 136.272 68.1507C136.272 70.0307 135.978 71.3707 135.392 72.1707C134.818 72.9707 133.718 73.3707 132.092 73.3707C130.465 73.3707 129.358 72.9707 128.772 72.1707C128.185 71.3707 127.892 70.0307 127.892 68.1507ZM129.132 68.1307C129.132 69.7041 129.312 70.7974 129.672 71.4107C130.045 72.0107 130.845 72.3107 132.072 72.3107C133.312 72.3107 134.118 72.0041 134.492 71.3907C134.865 70.7774 135.052 69.6907 135.052 68.1307C135.052 66.5574 134.838 65.4841 134.412 64.9107C133.998 64.3241 133.225 64.0307 132.092 64.0307C130.958 64.0307 130.178 64.3174 129.752 64.8907C129.338 65.4641 129.132 66.5441 129.132 68.1307ZM140.038 73.1707H138.858V58.7307H140.038V67.3307L141.738 67.2907L144.818 63.1707H146.198L142.778 67.7507L146.358 73.1707H144.958L141.758 68.3507L140.038 68.3907V73.1707ZM154.599 72.1707L155.199 72.1107L155.239 73.0907C153.733 73.2774 152.459 73.3707 151.419 73.3707C149.979 73.3574 148.973 72.9307 148.399 72.0907C147.826 71.2507 147.539 69.9574 147.539 68.2107C147.539 64.7174 148.913 62.9707 151.659 62.9707C152.979 62.9707 153.966 63.3507 154.619 64.1107C155.273 64.8574 155.599 66.0574 155.599 67.7107L155.559 68.6707H148.759C148.759 69.8974 148.966 70.8107 149.379 71.4107C149.806 71.9974 150.526 72.2907 151.539 72.2907C152.566 72.2907 153.586 72.2507 154.599 72.1707ZM148.759 67.6707H154.399C154.399 66.3507 154.179 65.4107 153.739 64.8507C153.313 64.2907 152.619 64.0107 151.659 64.0107C150.713 64.0107 149.993 64.3041 149.499 64.8907C149.006 65.4641 148.759 66.3907 148.759 67.6707ZM159.238 73.1707H158.058V63.1707H159.238V63.9107C160.358 63.2841 161.444 62.9707 162.498 62.9707C163.831 62.9707 164.718 63.3241 165.158 64.0307C165.611 64.7374 165.838 66.0307 165.838 67.9107V73.1707H164.638V67.9707C164.638 66.4374 164.491 65.4041 164.198 64.8707C163.904 64.3241 163.278 64.0507 162.318 64.0507C161.851 64.0507 161.358 64.1241 160.838 64.2707C160.331 64.4041 159.938 64.5441 159.658 64.6907L159.238 64.8907V73.1707Z" fill="white"/>
<defs>
<linearGradient id="paint0_linear_4_29" x1="75.9897" y1="77.3969" x2="28.6134" y2="-12.665" gradientUnits="userSpaceOnUse">
<stop stop-color="#EC2770"/>
<stop offset="1" stop-color="#641A35"/>
</linearGradient>
<linearGradient id="paint1_linear_4_29" x1="28.6134" y1="29.5515" x2="81.1495" y2="48.7835" gradientUnits="userSpaceOnUse">
<stop stop-color="#EB266F"/>
<stop offset="0.3125" stop-color="#EB266F"/>
<stop offset="0.354167" stop-color="#94204B"/>
<stop offset="0.808444" stop-color="#523E45" stop-opacity="0.94"/>
</linearGradient>
</defs>
</svg>
