<svg width="47" height="47" viewBox="0 0 47 47" fill="none" xmlns="http://www.w3.org/2000/svg">
<circle cx="23.5" cy="23.5" r="22" stroke="url(#paint0_linear_133_1173)" stroke-width="3"/>
<path d="M27.436 30.5804C27.436 31.0506 27.2574 31.3619 26.8501 31.594L20.6766 35.1658C20.4729 35.2835 20.2813 35.3424 20.0896 35.3424C19.898 35.3424 19.7064 35.2835 19.5027 35.1658L16.576 33.474C16.169 33.2386 15.9897 32.9279 15.9897 32.4578V14.0594C15.9897 13.5892 16.169 13.2785 16.576 13.0431L19.6502 11.266C19.7786 11.1888 19.9288 11.1443 20.0893 11.1443C20.5601 11.1443 20.942 11.5262 20.942 11.9971C20.942 12.3181 20.7645 12.5977 20.5023 12.7431L17.6949 14.3657V32.1504L20.0893 33.5346L25.7305 30.2737V27.5042L24.1888 26.613V28.8889C24.1888 29.3598 23.8069 29.7417 23.3361 29.7417C22.8652 29.7417 22.484 29.3598 22.484 28.8889L22.4797 25.1359C22.4797 24.8426 22.6312 24.5573 22.902 24.3988C23.0408 24.3186 23.1886 24.2821 23.3321 24.2821C23.4846 24.2821 23.632 24.3233 23.7588 24.3965L26.8497 26.1809C27.2567 26.4163 27.436 26.727 27.436 27.1972L27.436 30.5804ZM19.2369 15.9362C19.2369 15.4661 19.4158 15.1548 19.8228 14.9193L25.9963 11.3508C26.1999 11.2331 26.3916 11.1743 26.5832 11.1743C26.7749 11.1743 26.9665 11.2331 27.1701 11.3508L30.0969 13.0426C30.5042 13.278 30.6834 13.5887 30.6834 14.0589V21.1958C30.6834 21.666 30.5042 21.9767 30.0972 22.2121L27.023 23.9892C26.8946 24.0664 26.7444 24.1109 26.5839 24.1109C26.1131 24.1109 25.7312 23.729 25.7312 23.2581C25.7312 22.9371 25.9087 22.6575 26.1709 22.5121L28.9783 20.8895V14.3662L26.5839 12.9821L20.9424 16.2429V30.7663C20.9424 31.2372 20.5605 31.6191 20.0896 31.6191C19.6188 31.6191 19.2369 31.2372 19.2369 30.7663V15.9369V15.9362ZM22.9234 20.6347L25.7305 19.0115V17.2277L23.7752 18.358C23.6471 18.4353 23.4969 18.4798 23.3364 18.4798C22.8656 18.4798 22.4837 18.0979 22.4837 17.627C22.4837 17.306 22.6639 17.0311 22.9234 16.8806L26.1531 15.0113C26.2875 14.9337 26.434 14.8969 26.5788 14.8969C26.8734 14.8969 27.16 15.0498 27.3178 15.3233C27.3954 15.4577 27.4322 15.6042 27.4322 15.749L27.4362 19.3185C27.4366 19.7886 27.2567 20.0993 26.8493 20.3347L23.7751 22.1118C23.647 22.189 23.4969 22.2335 23.3364 22.2335C22.8655 22.2335 22.4836 21.8516 22.4836 21.3807C22.4836 21.0597 22.6613 20.7802 22.9234 20.6347ZM29.8303 24.2814C30.3012 24.2814 30.6831 24.663 30.6831 25.1338V32.4561C30.6831 32.9263 30.5038 33.2369 30.0965 33.4724L27.0223 35.2494C26.8939 35.3266 26.7437 35.3711 26.5832 35.3711C26.1124 35.3711 25.7305 34.9892 25.7305 34.5184C25.7305 34.1974 25.908 33.9178 26.1702 33.7723L28.9776 32.1498V25.1342C28.9776 24.6633 29.3595 24.2814 29.8303 24.2814Z" fill="url(#paint1_linear_133_1173)"/>
<defs>
<linearGradient id="paint0_linear_133_1173" x1="39.2474" y1="39.9742" x2="14.7783" y2="-6.54124" gradientUnits="userSpaceOnUse">
<stop stop-color="#EC2770"/>
<stop offset="1" stop-color="#641A35"/>
</linearGradient>
<linearGradient id="paint1_linear_133_1173" x1="14.7784" y1="15.2629" x2="41.9124" y2="25.1959" gradientUnits="userSpaceOnUse">
<stop stop-color="#EB266F"/>
<stop offset="0.3125" stop-color="#EB266F"/>
<stop offset="0.354167" stop-color="#94204B"/>
<stop offset="0.808444" stop-color="#523E45" stop-opacity="0.94"/>
</linearGradient>
</defs>
</svg>
