<svg width="62" height="59" viewBox="0 0 62 59" fill="none" xmlns="http://www.w3.org/2000/svg">
<rect x="0.5" y="0.5" width="61" height="58" rx="8.5" fill="#171C2C" stroke="#ED2770"/>
<path d="M38.272 28.9886C38.4232 28.4648 38.5036 27.916 38.5036 27.351C38.5036 26.7857 38.4232 26.2372 38.272 25.7134L44.9208 23.3546L45 31.3755L38.272 28.9886ZM26.1864 15.0743L35.8491 15L33.0173 20.9748C32.3755 20.8173 31.699 20.7329 31 20.7329C30.3012 20.7329 29.6245 20.8173 28.9827 20.9748L26.1864 15.0743ZM24.3424 15.7593L27.1448 21.672C26.0386 22.2576 25.1175 23.0876 24.4776 24.0771L17.739 21.6864L24.3424 15.7593ZM37.6246 15.8296L44.3462 21.656L37.5226 24.077C36.8827 23.0875 35.9618 22.2575 34.8554 21.6722L37.6246 15.8296ZM17 23.3265L23.7283 25.7139C23.5771 26.2375 23.4967 26.786 23.4967 27.3513C23.4967 27.9163 23.5771 28.4651 23.7283 28.9887L17.0796 31.3477L17 23.3265ZM17.6537 33.0458L24.4773 30.6248C25.1543 31.6717 26.1458 32.54 27.3384 33.1291L24.6584 39.1179L17.6537 33.0458ZM37.3763 39.1953L34.6617 33.1289C35.8542 32.5398 36.8455 31.6717 37.5225 30.6248L44.2611 33.0155L37.3763 39.1953ZM35.42 39.6307L26.5494 39.6989L29.1995 33.7776C29.7706 33.9017 30.3675 33.9681 30.9818 33.9693H30.9999H31.0179C31.6322 33.9681 32.2291 33.9017 32.8003 33.7776L35.42 39.6307ZM31.0001 32.2044C27.9612 32.2044 25.4976 30.0314 25.4976 27.3511C25.4976 24.6707 27.9612 22.4977 31.0001 22.4977C34.0391 22.4977 36.5027 24.6707 36.5027 27.3511C36.5027 30.0314 34.0391 32.2044 31.0001 32.2044ZM26.5496 39.6992L24.4273 44.4416C24.2766 44.7786 23.9077 45 23.4967 45H18.4946C18.2184 45 17.9944 44.8024 17.9944 44.5588V43.6762C17.9944 43.4326 18.2184 43.2351 18.4946 43.2351H22.8162L24.6586 39.118L25.0442 39.4523C25.2335 39.6164 25.4888 39.7074 25.7541 39.7053L26.5496 39.6992ZM37.3761 39.1957L39.1839 43.2351H43.5055C43.7817 43.2351 44.0057 43.4327 44.0057 43.6763V44.5588C44.0057 44.8024 43.7817 45 43.5055 45H38.5033C38.0924 45 37.7234 44.7786 37.5728 44.4416L35.4198 39.6311L36.4894 39.6227C36.7549 39.6206 37.0083 39.5258 37.1943 39.3588L37.3761 39.1957Z" fill="#EB266F"/>
</svg>
