<svg width="62" height="59" viewBox="0 0 62 59" fill="none" xmlns="http://www.w3.org/2000/svg">
<rect x="0.5" y="0.5" width="61" height="58" rx="8.5" fill="#171C2C" stroke="#ED2770"/>
<path d="M44.3515 35.7082L40.5789 34.2935L33.7705 36.8577C32.8863 37.2113 31.9136 37.3587 31 37.3587C30.0567 37.3587 29.1137 37.1819 28.2294 36.8577L21.421 34.2935L17.6484 35.7082C17.0294 35.944 17 36.504 17 36.6808C17 36.8576 17.059 37.4177 17.6484 37.6534L28.9662 41.927C30.2631 42.4281 31.7368 42.4281 33.0336 41.927L44.3514 37.6534C44.9705 37.4176 44.9999 36.8576 44.9999 36.6808C44.9999 36.504 44.9408 35.944 44.3514 35.7082H44.3515Z" fill="#EB266F"/>
<path d="M44.3515 28.6641L40.5789 27.2494L33.7705 29.8135C32.8863 30.1671 31.9136 30.3146 31 30.3146C30.0567 30.3146 29.1137 30.1377 28.2294 29.8135L21.421 27.2494L17.6484 28.6641C17.0294 28.8999 17 29.4599 17 29.6367C17 29.8135 17.059 30.3735 17.6484 30.6093L28.9662 34.8829C30.2631 35.3839 31.7368 35.3839 33.0336 34.8829L44.3514 30.6093C44.9705 30.3735 44.9999 29.8135 44.9999 29.6367C44.9999 29.4599 44.9408 28.8999 44.3514 28.6641H44.3515Z" fill="#EB266F"/>
<path d="M17.6487 23.5946L28.9665 27.8682C30.2634 28.3692 31.737 28.3692 33.0339 27.8682L44.3517 23.5946C44.9707 23.3588 45.0001 22.7694 45.0001 22.622C45.0001 22.4452 44.9411 21.8852 44.3517 21.6494L33.0339 17.3758C31.737 16.8747 30.2633 16.8747 28.9665 17.3758L17.6487 21.6494C17.0296 21.8852 17.0002 22.4452 17.0002 22.622C17.0002 22.7694 17.0592 23.3588 17.6487 23.5946Z" fill="#EB266F"/>
</svg>
